<svg xmlns="http://www.w3.org/2000/svg" viewBox="0 0 800 600" width="800" height="600" fill="none" role="img" aria-label="Analytics dashboard interface">
  <defs>
    <linearGradient id="g2-accent" x1="0" y1="1" x2="0" y2="0">
      <stop offset="0" stop-color="#2563EB"/>
      <stop offset="1" stop-color="#38BDF8"/>
    </linearGradient>
  </defs>
  <rect width="800" height="600" fill="#EAF2FF"/>
  <!-- Sidebar -->
  <rect x="0" y="0" width="150" height="600" fill="#0F172A"/>
  <rect x="28" y="40" width="94" height="16" rx="8" fill="url(#g2-accent)"/>
  <rect x="28" y="110" width="94" height="12" rx="6" fill="#38BDF8"/>
  <rect x="28" y="146" width="76" height="12" rx="6" fill="#334155"/>
  <rect x="28" y="182" width="84" height="12" rx="6" fill="#334155"/>
  <rect x="28" y="218" width="68" height="12" rx="6" fill="#334155"/>
  <!-- Top KPI cards -->
  <g>
    <rect x="186" y="44" width="176" height="104" rx="16" fill="#FFFFFF"/>
    <rect x="208" y="66" width="60" height="10" rx="5" fill="#94A3B8"/>
    <rect x="208" y="86" width="90" height="22" rx="6" fill="#0F172A"/>
    <rect x="208" y="120" width="120" height="8" rx="4" fill="#DBEAFE"/>
    <rect x="208" y="120" width="80" height="8" rx="4" fill="url(#g2-accent)"/>
  </g>
  <g>
    <rect x="378" y="44" width="176" height="104" rx="16" fill="#FFFFFF"/>
    <rect x="400" y="66" width="60" height="10" rx="5" fill="#94A3B8"/>
    <rect x="400" y="86" width="76" height="22" rx="6" fill="#0F172A"/>
    <rect x="400" y="120" width="120" height="8" rx="4" fill="#DBEAFE"/>
    <rect x="400" y="120" width="54" height="8" rx="4" fill="url(#g2-accent)"/>
  </g>
  <g>
    <rect x="570" y="44" width="192" height="104" rx="16" fill="#0F172A"/>
    <rect x="592" y="66" width="60" height="10" rx="5" fill="#64748B"/>
    <rect x="592" y="86" width="86" height="22" rx="6" fill="#FFFFFF"/>
    <rect x="592" y="120" width="140" height="8" rx="4" fill="#1E293B"/>
    <rect x="592" y="120" width="110" height="8" rx="4" fill="#38BDF8"/>
  </g>
  <!-- Big chart -->
  <rect x="186" y="172" width="376" height="384" rx="18" fill="#FFFFFF"/>
  <rect x="212" y="198" width="120" height="14" rx="7" fill="#0F172A"/>
  <rect x="212" y="220" width="80" height="9" rx="4.5" fill="#94A3B8"/>
  <path d="M212 470 L262 430 L312 448 L362 388 L412 410 L462 344 L512 372 L538 320"
        fill="none" stroke="url(#g2-accent)" stroke-width="5" stroke-linecap="round" stroke-linejoin="round"/>
  <path d="M212 470 L262 430 L312 448 L362 388 L412 410 L462 344 L512 372 L538 320 L538 520 L212 520 Z"
        fill="url(#g2-accent)" opacity="0.12"/>
  <circle cx="462" cy="344" r="7" fill="#2563EB"/>
  <!-- Donut card -->
  <rect x="578" y="172" width="184" height="384" rx="18" fill="#FFFFFF"/>
  <circle cx="670" cy="300" r="66" fill="none" stroke="#DBEAFE" stroke-width="20"/>
  <circle cx="670" cy="300" r="66" fill="none" stroke="url(#g2-accent)" stroke-width="20"
          stroke-dasharray="300 415" stroke-linecap="round" transform="rotate(-90 670 300)"/>
  <rect x="612" y="410" width="116" height="12" rx="6" fill="#DBEAFE"/>
  <rect x="612" y="410" width="80" height="12" rx="6" fill="#38BDF8"/>
  <rect x="612" y="440" width="116" height="12" rx="6" fill="#DBEAFE"/>
  <rect x="612" y="440" width="52" height="12" rx="6" fill="#2563EB"/>
  <rect x="612" y="470" width="116" height="12" rx="6" fill="#DBEAFE"/>
  <rect x="612" y="470" width="94" height="12" rx="6" fill="#0F172A"/>
</svg>
